<?xml version="1.0" standalone="no"?>
<!DOCTYPE svg PUBLIC "-//W3C//DTD SVG 1.1//EN" "http://www.w3.org/Graphics/SVG/1.1/DTD/svg11.dtd" >
<svg xmlns="http://www.w3.org/2000/svg">
<metadata></metadata>
<defs>
<font id="elsietallnskinnymedium" horiz-adv-x="579" >
<font-face units-per-em="2048" ascent="1638" descent="-410" />
<missing-glyph horiz-adv-x="614" />
<glyph horiz-adv-x="2048" />
<glyph horiz-adv-x="2048" />
<glyph unicode="&#xd;" horiz-adv-x="681" />
<glyph unicode=" "  horiz-adv-x="614" />
<glyph unicode="&#x09;" horiz-adv-x="614" />
<glyph unicode="&#xa0;" horiz-adv-x="614" />
<glyph unicode="!" horiz-adv-x="604" d="M217 121q-14 40 4 69q31 63 78 68.5t80 -43.5q23 -35 22 -80q0 -55 -36 -82q-47 -35 -99 0q-35 23 -49 68zM225 1524q0 16 12.5 26.5t29 10.5t26.5 -12.5t10 -28.5q-10 -231 12 -572l21 -260q14 -207 20 -317q0 -16 -10 -28.5t-26.5 -12.5t-28.5 10t-12 27 q-6 111 -21 315l-20 260q-23 346 -13 582zM291 145q6 -18 20 -28q4 -4 8 -2q5 4 5 18q-4 2 -11 4q-12 4 -22 8z" />
<glyph unicode="&#x22;" horiz-adv-x="755" d="M117 1438q-2 16 8 28.5t26.5 14.5t29 -8.5t14.5 -26.5q20 -217 20 -488q0 -16 -11 -27t-27.5 -11t-28 11t-11.5 27q0 266 -20 480zM469 1276q-2 119 4 201q2 16 14.5 27.5t27.5 9t26.5 -14.5t9.5 -26q-6 -80 -4 -197l4 -199q0 -16 -11.5 -27.5t-27.5 -11.5t-27.5 11.5 t-11.5 27.5z" />
<glyph unicode="#" horiz-adv-x="1409" d="M23 991.5q0 16.5 11 27.5t27 11q147 0 297 -2q33 268 52 492q2 14 14 25t27.5 9t26.5 -14t9 -29q-18 -219 -51 -485q185 -4 367 -12q4 344 61 508q6 16 20.5 23t30 1t22.5 -20.5t1 -28.5q-25 -68 -37 -158t-15 -155.5t-5 -173.5q143 -6 286 -17q16 -2 26.5 -13t9.5 -27.5 t-12 -27t-28 -10.5q-141 10 -282 17q0 -45 -2 -80q-4 -109 -17 -281q164 2 268 2q16 0 27.5 -11t11.5 -27.5t-11 -27.5t-28 -11q-104 0 -274 -2l-4 -50q-18 -256 -18 -405q0 -16 -11.5 -27.5t-28 -11.5t-27.5 11.5t-11 27.5q0 154 18 412l4 43q-266 -2 -409 -2l-60 -445 q-2 -16 -15 -26.5t-28.5 -8.5t-26 15.5t-8.5 27.5l58 439q-117 0 -221 4q-14 0 -25.5 12t-11.5 27.5t12 26.5t29 11q106 -4 227 -4l49 379q-143 2 -287 2q-16 0 -27 11.5t-11 28zM379 569q139 0 405 2q12 174 17 285q2 33 2 80q-188 8 -375 12z" />
<glyph unicode="$" horiz-adv-x="1181" d="M217 375q0 16 11.5 27.5t27.5 11.5t27.5 -11.5t11.5 -27.5q0 -143 88 -213q76 -63 199 -58q121 6 213 71t102 153q8 72 -7.5 128t-57 102t-82.5 76t-113 73l-19 12l-92 55q-33 20 -84 62.5t-77.5 81t-50 97t-25.5 124.5q-8 190 61 264q74 78 193 86v4q-2 27 0 78 q2 55 2 71.5t11 27.5t27.5 11t28 -11t11.5 -27.5t-2 -75.5q-2 -43 0 -70q0 -6 -3 -12q29 -4 56 -10q86 -25 157.5 -77t106.5 -122q8 -14 3 -28.5t-20.5 -22.5t-29.5 -3t-23 21q-27 51 -85 93t-130 63q-160 43 -245 -49q-47 -51 -41 -207q2 -41 13 -77t23.5 -62.5t40.5 -57.5 l45 -47q16 -16 60 -45l61 -39q16 -12 68 -43q59 -35 94 -58.5t83 -67.5t72.5 -86t39.5 -105q16 -63 8 -136q-12 -117 -119 -196q-104 -78 -238 -92q2 -29 3 -174q0 -16 -11.5 -27.5t-28 -11.5t-27.5 11t-11 28q0 143 -2 170q-123 6 -207 73q-117 94 -117 275z" />
<glyph unicode="%" horiz-adv-x="1665" d="M195 1137.5q2 70.5 20 138.5q37 113 117 162q49 32 106 28h4q131 0 189 -112q47 -94 24 -219q-25 -125 -102 -193q-96 -84 -215 -37q-72 31 -108.5 96.5t-34.5 136zM279.5 1086.5q21.5 -80.5 87.5 -107.5q76 -31 134 20.5t77.5 150.5t-17.5 169q-14 29 -37 45 q-19 -6 -35 4q-61 39 -116.5 4t-83.5 -121q-31 -84 -9.5 -164.5zM434 52.5q-4 15.5 2 29.5q342 662 815 1348q10 12 25.5 15t29 -6t16.5 -24.5t-5 -30.5q-471 -680 -811 -1339q-8 -14 -23.5 -18t-30 3t-18.5 22.5zM1128 338q-8 100 20 194.5t95 137.5q12 8 28.5 5t24.5 -18 q4 -4 4 -10q61 -29 103 -104q45 -78 55 -176q12 -102 -16 -174q-39 -92 -125 -100.5t-137 77.5q-43 66 -52 168zM1206 344q6 -84 39 -133q27 -45 64 -41q41 4 59 51q23 55 14 137q-10 82 -47 148q-33 60 -78 74q-29 -37 -43 -100.5t-8 -135.5z" />
<glyph unicode="&#x26;" horiz-adv-x="1472" d="M342 1282q-8 172 127 215q31 8 70 5t63 -15q59 -29 107 -141q88 -201 -27 -478l-20 -43l116 -131l123 -139l17 -20q4 61 4 202q0 59 2 175t2 175q0 16 11 27.5t27.5 11.5t28 -11t11.5 -28q0 -59 -2.5 -174.5t-2.5 -175.5q0 -202 -12 -288q6 -10 48 -65.5t57 -72.5l47 -59 q33 -41 60.5 -69.5t55.5 -55.5q12 -12 12.5 -27.5t-11 -28t-27 -12.5t-27.5 11q-90 86 -237 278q-55 -176 -215 -272q-152 -90 -275 -29q-104 53 -106 207q-2 102 39 217q29 74 98 213l65 129q-104 125 -163 236q-61 115 -66 233zM420 1286q4 -100 57 -201q49 -92 129 -194 l2 6q104 246 31 420q-37 84 -70 100q-14 6 -38.5 8t-36.5 -2q-80 -25 -74 -137zM446 256q0 -106 66 -139q84 -43 197 24q158 94 194 285l-63 80q-35 43 -111 127l-102 115l-52 -101q-68 -133 -94 -205q-37 -98 -35 -186z" />
<glyph unicode="'" horiz-adv-x="448" d="M156 1466q0 16 10 27.5t26.5 12.5t27.5 -9.5t13 -26.5q10 -154 11 -374q0 -16 -11.5 -27.5t-28 -11.5t-27.5 11t-11 28q0 217 -10 370z" />
<glyph unicode="(" horiz-adv-x="716" d="M130 498q-15 297 58.5 571t219.5 524q6 14 22 18.5t29.5 -2.5t17.5 -24t-4 -29q-139 -244 -209.5 -508t-56.5 -546.5t127 -526.5q4 -8 10 -22q27 -59 42 -88t44 -67t66 -62q12 -10 15 -25.5t-6 -29t-24.5 -16.5t-29.5 5q-18 14 -37 31l-29 29q-12 12 -27.5 35.5 t-21.5 31.5t-21 39l-18 33q-2 4 -18 39l-15 35q-119 258 -134 555z" />
<glyph unicode=")" horiz-adv-x="712" d="M132 1571.5q-3 15.5 6 29t25 16.5t30 -5q135 -94 210 -250q68 -141 92.5 -370.5t4.5 -483.5q-20 -260 -82 -479q-63 -221 -162 -342q-10 -12 -26.5 -14.5t-29 8t-14.5 27t9 28.5q90 109 149 317.5t78 460.5q20 246 -3.5 466t-84.5 349q-66 135 -187 217q-12 10 -15 25.5z " />
<glyph unicode="*" horiz-adv-x="1155" d="M210 1393.5q-3 15.5 5 30t23.5 17.5t29.5 -5q31 -18 88 -45q86 -39 97 -45l26 -19l35 -24l2 -3q0 14 1 50t1 51q4 172 25 229q6 16 20.5 23.5t29.5 1.5t22.5 -20.5t0.5 -28.5q-16 -47 -20 -207q0 -16 -1 -47t-1 -45q119 25 303 102q14 6 28.5 0t21.5 -21.5t1 -30 t-22 -22.5q-180 -76 -301 -102q102 -90 168 -172q10 -12 8 -28.5t-14.5 -27t-29 -8.5t-26.5 15q-61 78 -162 166q-47 -63 -141 -217q-8 -14 -23.5 -17.5t-30 4.5t-17.5 23.5t5 29.5q92 152 140 218q-14 6 -33 20l-35 25q-16 12 -18 12q-23 12 -92 43q-61 29 -97 51 q-14 8 -17 23.5z" />
<glyph unicode="+" horiz-adv-x="1101" d="M261 819.5q1 16.5 12.5 26.5t27.5 10q170 -10 238 -12q-6 281 10 477q2 14 14 25.5t27.5 9.5t27 -14.5t9.5 -28.5q-16 -190 -11 -469q131 2 234 22q16 2 29.5 -7t16.5 -24.5t-6 -28.5t-24 -18q-109 -20 -248 -22q12 -397 13 -479q0 -16 -11.5 -27.5t-28 -11.5t-27.5 11 t-11 28q0 78 -12 479q-70 2 -244 12q-16 2 -26.5 13.5t-9.5 28z" />
<glyph unicode="," horiz-adv-x="563" d="M43 -291.5q-4 15.5 2 29.5q63 111 240 479q6 14 21.5 20.5t29.5 -1t20 -22.5t-2 -30q-176 -371 -239 -483q-8 -14 -23.5 -18.5t-30 3t-18.5 23z" />
<glyph unicode="-" d="M-2 511q6 15 20.5 22.5t28.5 1.5q39 -12 81 -15.5t111.5 -0.5t96.5 3q16 0 27.5 -11t11.5 -27.5t-11.5 -28t-27.5 -11.5q-12 0 -88 -3t-128 0t-97 20q-16 6 -23.5 20.5t-1.5 29.5z" />
<glyph unicode="." horiz-adv-x="552" d="M123 90q-2 33 19.5 54.5t60.5 31.5q4 2 12 4q18 31 51 15l4 -2q15 -5 23 -15q49 -35 55 -80q6 -55 -41 -94q-43 -33 -94 -27q-61 8 -82 72q-8 23 -8 41zM201 92q0 -8 4 -18q6 -16 18 -19q18 -2 35 11q14 10 12 21t-16 24l-6 -2l-10 -3q-8 -4 -13 -4q-16 -6 -24 -10z" />
<glyph unicode="/" horiz-adv-x="1175" d="M47 -315q37 100 119 256q102 193 127 245q55 123 180 451q121 317 191 453l122 217q74 131 109 215q6 16 21.5 22t31 0t21.5 -21.5t0 -29.5q-39 -90 -115 -225q-98 -170 -121 -215q-80 -156 -188 -445q-125 -332 -183 -454q-25 -55 -126 -250q-82 -154 -115 -244 q-6 -16 -20.5 -23.5t-30 -1t-22.5 21t-1 28.5z" />
<glyph unicode="0" horiz-adv-x="1071" d="M242 823q12 285 100 457q80 156 207 178q0 2 2 4q8 14 24.5 17.5t28.5 -4.5q10 -6 21 -15q10 0 20 -2q14 -4 22.5 -15.5t8.5 -25.5q139 -143 178 -440q35 -264 -10 -565q-25 -164 -92 -271q-45 -76 -109 -106q-76 -37 -164 -4q-125 49 -192 299q-57 221 -45 493zM319 819 q-10 -262 46 -471q55 -211 143 -244q57 -23 102 0q41 20 76 76q57 96 80 244q43 289 10 543q-39 298 -180 417q-111 2 -184 -139q-80 -156 -93 -426z" />
<glyph unicode="1" horiz-adv-x="827" d="M342 1389.5q6 15.5 20 21.5q8 4 31 23q33 27 47 34q35 23 62 27q47 4 73 -35q16 -25 23 -78q4 -37 4 -96q2 -35 1 -93t-1 -73q2 -96 0 -313q-2 -219 2 -315q2 -51 10 -183q8 -133 9 -186q0 -16 -11.5 -27.5t-28 -11.5t-27.5 11t-11 28q0 68 -8 180q-8 137 -11 184 q-4 111 -2 317t0 316q0 12 1 70.5t-1 95.5q0 53 -4 88q-4 33 -10 41v2q-8 -2 -27 -12l-43 -33q-29 -23 -45 -31q-14 -8 -29.5 -1.5t-22.5 20.5t-1 29.5z" />
<glyph unicode="2" horiz-adv-x="1028" d="M203 1196q-6 125 24 197q39 92 128 127.5t180.5 9t144.5 -102.5q145 -209 57 -542q-51 -193 -213 -502q-98 -184 -178 -289l-6 -6q20 -2 135 -2q51 0 162 2t147 2q16 0 27.5 -11t11.5 -27.5t-11 -28t-28 -11.5q-37 0 -147.5 -2t-161.5 -2q-96 0 -147 2q-31 0 -49 2 q-10 0 -19 2q-4 2 -10 4q-14 6 -20.5 18.5t-4.5 26.5l4 9q0 4 3.5 8t7.5 10q8 8 18 23l18 22q4 2 7 6l2 2q76 98 170 277q160 301 207 485q78 297 -48 477q-37 55 -102.5 74t-126.5 -7t-88 -89q-23 -53 -16 -160q4 -96 26 -170q4 -16 -3 -30.5t-22.5 -18.5t-30 3.5 t-18.5 21.5q-27 84 -30 190z" />
<glyph unicode="3" horiz-adv-x="1105" d="M221 1419.5q2 16.5 14.5 26.5t28.5 8q6 0 357 -18q100 -6 149 -15q33 -4 51 -12q41 -16 41 -51q0 -27 -22 -62q-16 -27 -47 -57q-45 -49 -131 -121l-130 -104l-28 -23q14 -10 51 -33q94 -57 113 -77q150 -168 206 -363q74 -246 -51 -416q-41 -57 -107.5 -83.5 t-140.5 -22.5q-72 6 -135 42t-94 101q-14 27 -20.5 58.5t-5 70.5t3.5 62.5t9 66.5t7 49q2 16 15.5 26.5t28.5 8.5t25.5 -15t8.5 -28l-8 -57q-6 -41 -8.5 -59.5t-3.5 -50t3.5 -55t14.5 -44.5q20 -43 65 -68.5t100.5 -28.5t103.5 16.5t77 55.5q100 139 39 349 q-53 178 -191 331q-12 14 -96 66q-47 29 -59 37q-14 10 -23 18q-16 14 -20 33q-2 18 10 37q6 8 16 16q14 14 43 39l129 107q84 68 127 112q25 27 37 45l4 4l-20 5q-45 6 -142 12q-352 18 -360 18q-16 2 -26.5 14.5t-8.5 29z" />
<glyph unicode="4" horiz-adv-x="1196" d="M336 1339q2 59 3 127t1 80q0 16 11 27.5t27.5 11.5t28 -11t11.5 -28v-80l-4 -127q0 -51 2 -149q2 -133 10 -201q4 -41 10 -61h25q20 0 37 4q92 23 96 22q127 14 244 11v18q2 63 -7 313q-6 197 0 316q0 16 12.5 26.5t29 10.5t26.5 -12.5t10 -28.5q-6 -115 0 -310 q8 -248 6 -315v-25l43 -4q16 -2 25.5 -15t7.5 -29.5t-15 -26t-30 -6.5l-33 4q-6 -166 -3 -375t28 -369q2 -16 -7 -29.5t-25.5 -15.5t-30 7.5t-15.5 25.5q-25 166 -28 382t4 380q-111 4 -234 -10l-86 -21q-74 -16 -110 -6q-18 6 -31 27q-8 10 -13 28q-8 29 -14 76 q-8 70 -10 207q-2 98 -2 151z" />
<glyph unicode="5" horiz-adv-x="1245" d="M338 1251q-2 72 6 115q4 31 12 49q14 29 37 39q37 18 111 16q6 0 133 -12q174 -16 233 6q14 6 29.5 -1t22 -21.5t-1 -29.5t-21.5 -21q-76 -29 -270 -11q-96 10 -127 13q-51 0 -74 -9v-2q-4 -10 -8 -28q-6 -37 -4 -101q0 -35 2 -74.5t5 -73.5t3 -42q10 -190 10 -209 q0 -12 -6 -43q20 -2 57 -2h107q145 -18 283 -143q143 -129 161 -273q14 -127 -53 -223t-178 -143q-68 -29 -138.5 -34t-136.5 19q-66 27 -100 84q-27 43 -35 117q-8 92 -12 102q-2 14 6 28.5t23.5 18t30 -5t18.5 -24.5q2 -12 12 -111q6 -57 23 -84q33 -53 111.5 -64.5 t166.5 25.5q90 39 143.5 114t41.5 173q-14 113 -136 223q-121 109 -239 123h-99q-39 0 -61 2q-14 0 -25 2q-6 0 -10 2q-14 4 -22 13q-25 25 -17 69q2 8 3 15.5t2 11.5t1 8q0 14 -10 205q0 8 -3 43t-5 75t-2 74z" />
<glyph unicode="6" horiz-adv-x="1157" d="M199 760q-6 176 12 272q33 211 158 359q45 53 114.5 81.5t134.5 24.5q76 -6 127.5 -54t55.5 -134q0 -16 -10.5 -28.5t-26.5 -12.5t-28.5 10.5t-12.5 26.5q-6 106 -109 114q-49 4 -100 -17.5t-84 -60.5q-113 -133 -141 -321q-18 -119 -13 -279q82 100 216 99 q244 -4 366 -146q106 -123 94 -305q-10 -168 -106 -289q-106 -135 -246 -114q-74 10 -133 51q-61 43 -104.5 106.5t-73 135t-47.5 155.5q-37 150 -43 326zM287 621q10 -90 30 -170q84 -356 295 -388q94 -14 172 87q82 100 90 243q10 152 -75 250q-98 115 -307 119 q-131 2 -187 -123q-4 -12 -18 -18z" />
<glyph unicode="7" horiz-adv-x="923" d="M136 1480.5q5 14.5 20.5 22.5t29.5 2q12 -4 90 -8q59 -4 166 -8q29 0 83.5 -2t76.5 -2q35 0 53 -2q10 0 17 -2h8q2 0 6 -2q10 -2 19 -13q12 -18 14 -47q0 -20 -2 -49q-6 -43 -23 -115l-30 -114q-18 -68 -21 -70q-18 -76 -70 -254l-73 -260q-88 -332 -88 -498 q0 -16 -11.5 -27.5t-28 -11.5t-27.5 11.5t-11 27.5q0 176 92 516q20 84 71.5 261.5t71.5 255.5l19 67l30 115q14 66 21 106q2 14 2 25q-16 2 -41 2q-23 0 -77 2t-83 2q-109 4 -170 8q-86 4 -108 13q-14 4 -22.5 19t-3.5 29.5z" />
<glyph unicode="8" horiz-adv-x="1126" d="M252 1219q39 176 147 262q129 100 303 37q14 -6 21.5 -20.5t1.5 -31.5q82 -61 125 -157.5t44 -193.5t-20 -193q-41 -160 -139 -248q53 -23 88 -56q76 -74 94.5 -181t-18.5 -195q-37 -98 -119 -160t-192 -53q-98 8 -173 77.5t-112 167.5q-37 88 -23.5 192.5t80.5 166.5 q15 15 50 29q-113 86 -152 243q-41 160 -6 314zM328 1202q-33 -147 8 -289.5t143 -203.5q98 -59 189 10q92 70 131 221q41 160 -7.5 304.5t-191.5 207.5q-10 4 -16 12q-76 2 -135 -45q-88 -70 -121 -217zM357.5 456.5q-9.5 -75.5 19.5 -155.5q31 -82 88 -135t127 -60 q82 -6 143.5 39t89.5 123q31 74 16.5 156t-71.5 137q-10 10 -18.5 16.5t-22.5 13.5t-19 10t-26.5 11.5t-26.5 10.5q-80 -33 -159 -7h-2l-47 -22q-29 -12 -35 -19q-47 -43 -56.5 -118.5z" />
<glyph unicode="9" horiz-adv-x="1103" d="M255 1157q-1 84 21.5 161t85 135t158.5 81q100 25 179 -15t128 -122q41 -72 59.5 -163t12.5 -173q-4 -41 -13 -88t-24.5 -104.5t-19.5 -82.5q-23 -102 -36 -155t-38 -136t-52.5 -135.5t-68.5 -117t-96 -118.5t-127 -104q-12 -10 -28.5 -7t-26 15.5t-6 29t15.5 24.5 q154 111 228.5 240.5t123.5 328.5q-147 -49 -280 64q-117 100 -170 276q-25 82 -26 166zM332 1206q-4 -90 22 -192q47 -154 147.5 -240t207.5 -47q21 6 39 -6l16 82l22 86q14 55 22.5 97t12.5 83q6 70 -10 148.5t-51 138.5q-82 137 -223 104q-94 -23 -147.5 -93.5 t-57.5 -160.5z" />
<glyph unicode=":" horiz-adv-x="595" d="M137 862q36 58 99 68q6 8 12 14q39 35 80 21.5t59 -76.5q12 -41 -5 -89t-52 -83q-39 -39 -84 -45q-55 -6 -96 43q-61 68 -13 147zM203 770q2 -2 4 -6q14 -16 31 -14q18 2 36 22q23 23 33 51.5t6 44.5q-4 13 -8 21q-2 -2 -4 -2q-12 -14 -24.5 -40t-12.5 -46 q0 -16 -12 -26.5t-29 -10.5q-10 0 -20 6zM223 98q-10 43 10 103q6 14 20.5 21t31.5 1q12 -6 20 -18q10 -6 17 -17q29 -55 22 -94q-2 -25 -19.5 -41t-43.5 -14q-43 8 -58 59z" />
<glyph unicode=";" horiz-adv-x="614" d="M117 -158q12 29 46 119t62.5 152.5t61.5 115.5q8 14 23.5 17.5t29.5 -5t17 -24t-5 -29.5q-31 -49 -56.5 -107t-57.5 -147l-48 -120q-6 -16 -21 -22.5t-30.5 -0.5t-21.5 21.5t0 29.5zM229 864q49 63 97 70q55 6 77 -53q12 -39 3 -86q-12 -53 -52 -76q-37 -23 -73 0 q-29 18 -43 51q-7 23 -7 43q-23 25 -2 51zM311 799q2 -6 6 -11q8 10 13 25q2 6 2 14l-2 -2q-16 -6 -19 -12q-4 -6 0 -14z" />
<glyph unicode="&#x3c;" horiz-adv-x="1286" d="M137 823q6 14 25 29q10 10 28 22q31 18 89 50q68 35 260 125q215 100 274 131q131 68 164 100q12 10 27.5 10t26.5 -12t11 -27.5t-12 -27.5q-41 -39 -182 -111q-86 -45 -277 -135l-256 -123q-55 -29 -84 -47q-12 -6 -18 -12q0 -2 2 -4q12 -14 41 -33q23 -14 55 -33 l25 -12q14 -6 18 -8q39 -23 170 -89l205 -102q276 -145 342 -215q10 -12 10 -28.5t-12 -27t-28.5 -10.5t-26.5 13q-55 59 -322 198l-205 105l-170 86l-18 8l-23 12q-37 20 -63 37q-39 25 -57 49q-33 41 -19 82z" />
<glyph unicode="=" horiz-adv-x="1302" d="M70 620.5q0 16.5 10 29t26 12.5q412 20 953 20q16 0 27.5 -11.5t11.5 -27.5t-11.5 -27.5t-27.5 -11.5q-541 0 -948 -20q-16 0 -28.5 10t-12.5 26.5zM94 954.5q0 16.5 11.5 27.5t27.5 11q143 0 430 -1t430 -1q16 0 27.5 -11t11.5 -27.5t-11 -28t-28 -11.5q-143 0 -430 1 t-430 1q-16 0 -27.5 11.5t-11.5 28z" />
<glyph unicode="&#x3e;" horiz-adv-x="1280" d="M110.5 1211.5q-4.5 15.5 4 28.5t24 17t29.5 -4q332 -197 666 -333l114 -50l72 -30l22 -11l9 -2q2 -2 3 -2t3 -2q2 0 4 -2q8 -8 12 -16q8 -25 -8 -49q-8 -12 -23 -27q-23 -20 -61 -47q-45 -31 -107 -68q-285 -170 -649 -342q-14 -8 -29.5 -2t-22.5 20.5t-1 30t21 21.5 q354 170 641 338q61 35 102 65l39 29l-57 25l-113 47q-344 143 -678 342q-12 8 -16.5 23.5z" />
<glyph unicode="?" horiz-adv-x="991" d="M143 1108q-18 150 56.5 251t195.5 122q123 23 229.5 -51t145.5 -232q37 -147 -4 -258q-51 -131 -203 -170q-16 -4 -63 -4q-14 0 -21 -2v-2q-4 -14 -4 -41q-2 -47 2 -131q0 -41 4 -95.5t6 -91t2 -49.5q0 -16 -11 -27.5t-27.5 -11.5t-27.5 11.5t-11 27.5q0 12 -2 48 t-6.5 89.5t-4.5 94.5q-4 88 -2 139q0 31 4 51q8 35 27 47q27 20 72 21h43q113 31 149 125q35 86 4 209q-33 131 -114.5 187t-171.5 40q-90 -14 -146.5 -91t-42.5 -198q2 -14 -8 -27.5t-25.5 -15.5t-29 8.5t-15.5 26.5zM369 96q-14 45 14 74q18 18 49 20q31 12 55 7 q45 -12 52 -62q2 -33 -15 -65q-18 -37 -53 -47.5t-70 20.5q-25 23 -32 53zM446 111q4 -6 7 -9q2 0 2 2q2 3 2 5q-2 0 -4 1t-7 1z" />
<glyph unicode="@" horiz-adv-x="1484" d="M436 848q4 219 60.5 400.5t167.5 264.5q94 72 272 17q104 -33 181 -132.5t114 -218t47 -251.5q14 -205 -37 -359q-59 -178 -180 -202q-39 -6 -71 14t-44 55q-12 39 -14 119l-14 -29q-29 -53 -68 -75q-47 -25 -102 -7q-115 41 -121 236q-6 162 55 319q29 78 68 123 q47 59 102 61.5t100 -55.5q6 6 15 11q18 10 34 2q20 -8 25 -31q4 -10 0 -27q0 -8 -2 -13t-2 -7v-4v-70q10 -29 18 -63q8 -31 -18 -45q-2 -27 -6 -97.5t-6 -109.5q-6 -164 10 -213q6 -20 24 -17q78 14 123 150q45 139 33 328q-14 197 -90 346t-199 188q-139 43 -202 -4 q-88 -68 -139.5 -232.5t-55.5 -373.5q-2 -201 38 -377t112 -260q63 -72 140 -105.5t140 -23.5q66 12 107 67.5t41 161.5q0 16 11 27.5t27.5 11.5t27.5 -11t11 -28q0 -131 -57 -210t-154 -95q-90 -14 -185 28t-167 128q-86 98 -129 287.5t-41 400.5zM702 684q6 -143 70 -166 q23 -8 41 2t35 43q35 63 55 201q8 59 23 227l2 25q-14 35 -29 57q-25 35 -44 34t-46 -32q-29 -39 -55 -104q-55 -143 -52 -287z" />
<glyph unicode="A" horiz-adv-x="1413" d="M108 81q-2 5 -1 10q0 10 6 20q133 231 239 501v17q4 14 17 24q72 180 176 502q14 47 76 207q51 135 73 205q2 8 11 16v10q2 15 15 25q11 8 24 8h6q16 -2 25 -15.5t7 -29.5q-1 -5 -1 -13q0 -19 7 -55q10 -45 29 -112q14 -47 40 -124t26 -79q35 -111 153 -553 q94 -350 170 -543q3 -6 3 -13q0 -9 -4 -17q-7 -16 -21 -21q-7 -3 -14 -3q-8 0 -16 4q-15 7 -21 22q-74 193 -154 481h-8q-58 6 -208 6h-81h-36q-139 0 -224 14q-113 -279 -244 -505q-8 -12 -23.5 -16.5t-29 4t-17.5 23.5zM453 649q69 -10 188 -10h41h94q129 0 182 -4 q-115 424 -149 539q-2 4 -26.5 80.5t-39.5 125.5q-8 25 -14 50l-37 -95q-51 -135 -74 -205q-98 -305 -165 -481z" />
<glyph unicode="B" horiz-adv-x="1257" d="M199 60q0 14 10 26q-2 48 -2 104q0 85 4 191q12 281 12 307v47q-10 10 -12 25q-2 18 12 33q0 53 -4 161q-4 110 -5 178v35q0 56 2 126q3 93 13 171q0 4 2 9q-12 12 -12 28.5t11.5 27.5t27.5 11q94 0 141 -1t118 -12t120 -34q176 -80 207 -338q5 -42 5 -80 q0 -123 -58 -192q-23 -25 -48 -45q76 -35 143.5 -98.5t110.5 -141.5q37 -70 51 -140q5 -28 5 -57q-1 -43 -13 -89q-20 -76 -79 -136q-123 -123 -355 -143q-63 -4 -188 -6q-121 0 -176 -7h-5q-13 0 -23 8q-14 12 -15 32zM285 102q45 2 131 2q125 2 184 7q205 18 307 118 q63 66 67 157q0 7 1 15q0 83 -47 160q-45 84 -120 145.5t-153 79.5q-55 -23 -127 -34q-55 -10 -143 -17q-12 -2 -41 -3t-43 -3v-41q0 -31 -12 -309q-5 -126 -5 -219q0 -31 1 -58zM292 1138q1 -64 5 -170t4 -161q14 2 40 3t38 3q84 6 137 14q59 10 105 29q10 8 22 10 q53 25 86 66q41 50 41 147q0 32 -4 68q-25 213 -162 274q-86 39 -297 41v-10q-10 -74 -13 -162q-2 -66 -2 -119v-33z" />
<glyph unicode="C" horiz-adv-x="1323" d="M412 876q4 182 30 341q23 133 91.5 214.5t149.5 105.5q43 13 88 13q40 0 81 -10q129 -31 195 -131q39 -60 39 -121q0 -56 -33 -114q-8 -14 -23.5 -18.5t-30 2.5t-18.5 22.5t2 29.5q22 40 22 77q0 40 -25 79q-48 74 -146 98q-31 7 -60 7q-34 0 -66 -9 q-60 -16 -114.5 -81.5t-73.5 -176.5q-27 -158 -31 -332v-38q0 -158 29 -326q33 -188 107 -301q23 -35 71.5 -66.5t104.5 -46.5q37 -9 68 -9q73 0 114 50q20 25 32.5 67t15.5 66.5t9 87.5q2 16 14.5 26.5t29 8.5t26.5 -14q8 -10 8 -23v-6l-4 -29q-2 -27 -3 -32.5t-4 -32.5 t-5 -37l-10 -33q-6 -23 -12.5 -37t-15.5 -30.5t-20 -30.5q-65 -80 -173 -80q-42 0 -91 12q-68 16 -128 56.5t-93 91.5q-83 124 -117 326q-31 181 -30 346v38z" />
<glyph unicode="D" horiz-adv-x="1075" d="M209 94v8v15v41q2 45 6 125l10 198q4 262 4 625q0 34 2 114q1 54 1 96v40q-1 56 -9 108q-1 23 15 37q4 17 17 25q11 7 24 6h6q362 -70 501 -305q86 -145 86 -352q0 -114 -26 -246q-16 -78 -28.5 -127t-42.5 -119t-68 -121q-23 -29 -88.5 -77t-135.5 -87q-84 -45 -143 -59 q-22 -4 -41 -4q-59 0 -84 43zM287 115q4 -2 11 -1q10 0 26 3q49 10 122 49q63 37 123 80t76 65q49 61 76 140q25 78 47 194q26 129 26 237q0 181 -73 304q-115 195 -416 262q4 -50 5 -108v-40q0 -42 -1 -90q-2 -72 -2 -104q0 -362 -4 -625q0 -2 -10 -202l-6 -123v-39v-2z " />
<glyph unicode="E" horiz-adv-x="1171" d="M205 176q0 37 2 103q2 33 3 72.5t2 66t1 33.5q0 51 -6 497q-1 52 -1 102q0 247 17 398q-16 14 -12 37q3 17 17 25q11 7 24 6h6q80 -18 186 -20h43q90 0 201 5q139 6 199 6q16 0 27.5 -11t11.5 -27.5t-11.5 -27.5t-27.5 -11q-53 0 -185.5 -6.5t-205 -6.5t-197.5 13 q-15 -143 -16 -351q0 -62 2 -131q0 -35 2 -84h135h41q79 0 133 -6q16 -2 26.5 -14.5t8.5 -28.5t-14.5 -26.5t-28.5 -8.5q-53 6 -127 6h-39h-135q5 -166 5 -271q0 -35 -1 -64q0 -8 -1 -35t-2 -67t-3 -73q-2 -63 -2 -100v-20h2q20 -2 69 -4q84 -4 215 -5h152q80 0 138.5 1.5 t68.5 1.5q16 0 27.5 -11.5t11.5 -28t-11.5 -27.5t-27.5 -11q-10 0 -69.5 -1t-139.5 -1h-152q-137 2 -217 4q-47 2 -76 6q-14 0 -24 4q-8 0 -12 2q-12 6 -21 14q-6 8 -10 25v14q-2 12 -2 37z" />
<glyph unicode="F" horiz-adv-x="1105" d="M201 1280v115v37v12v6v4q2 2 2 6q4 8 10 15q8 6 18 10q4 2 11 2q10 2 24 2q25 2 68 4q72 2 198 2q63 0 138 -1t129 -1h63q16 0 27.5 -11.5t11.5 -27.5t-11 -27.5t-28 -11.5h-63q-53 0 -128 1t-139 1q-125 0 -196 -2q-37 -2 -57 -2v-18v-113q2 -139 4 -184q2 -43 12 -228 q133 0 430 -10q14 0 25.5 -12t11.5 -27.5t-12.5 -27t-28.5 -11.5q-293 10 -422 11q3 -81 3 -148q0 -34 -1 -65l-8 -168q-6 -125 -6 -208t12 -161q2 -16 -8 -29q-9 -14 -25 -16h-5q-13 0 -25 8q-14 10 -15 25q-12 84 -12 170q0 90 7 218t7 165q1 30 1 62q0 48 -2 98 q-3 84 -9 188t-8 162q-2 39 -4 186z" />
<glyph unicode="G" horiz-adv-x="1761" d="M547 1157q16 221 84 320q76 107 181 107q9 0 17 -1q102 -8 193 -104q84 -92 119 -219q17 -60 17 -122q0 -69 -21 -141q-4 -14 -19.5 -22t-30 -3t-22.5 20.5t-2 29.5q16 56 16 112q0 53 -14 106q-29 108 -100 185q-70 74 -140 80h-7q-70 0 -122 -73q-57 -80 -71 -281 q-3 -56 -3 -114q0 -146 21 -310q33 -231 102 -403q72 -178 158 -222q50 -26 90 -26q36 0 64 20q55 41 82 152q15 74 15 153q0 39 -4 79q-11 122 -50 192l-4 12h-178q-16 0 -27.5 11.5t-11.5 27.5t11.5 27.5t27.5 11.5q354 0 598 10q16 0 28 -10t12 -26.5t-10 -29t-26 -12.5 q-156 -6 -340 -8q39 -88 49 -216q3 -37 3 -72q0 -88 -18 -167q-33 -139 -112 -198q-48 -35 -107 -35t-129 35q-111 57 -194 262q-72 178 -105 422q-25 167 -25 316q0 63 5 124z" />
<glyph unicode="H" horiz-adv-x="1325" d="M248 862.5q0 16.5 10 27.5t25 13l-35 545q0 12 9 22q11 12 26.5 14.5t28 -9t14.5 -27.5q23 -301 34 -541q285 10 621 11q27 0 37 -27l-4 207q0 18 -5 114q-3 60 -3 108q0 28 1 52q3 62 13 121q4 13 18 23q10 7 21 8q4 0 7 -1q15 -3 24.5 -16.5t7.5 -29.5 q-12 -53 -14 -111v-30q0 -50 4 -118q4 -92 4 -120q8 -526 28 -1035q0 -16 -10 -28t-26.5 -12t-29 10t-12.5 26q-14 399 -24 807q-8 -27 -37 -26q-334 0 -616 -11q18 -373 18 -696q0 -16 -11.5 -27.5t-27.5 -11.5t-27.5 11.5t-11.5 27.5q0 322 -18 692q-16 0 -27.5 10.5 t-11.5 27z" />
<glyph unicode="I" horiz-adv-x="507" d="M209 1464q0 16 11 27.5t27.5 11.5t28 -11t11.5 -28q0 -608 6 -897q0 -41 6 -159.5t6 -165.5t-8 -166q-3 -16 -15 -26q-10 -9 -23 -9h-5q-16 2 -26.5 14.5t-8.5 28.5q8 115 8 159t-6 158l-6 166q-6 289 -6 897z" />
<glyph unicode="J" horiz-adv-x="729" d="M33 387q0 16 10 28.5t26.5 12.5t29 -10.5t12.5 -26.5q6 -113 12 -158q16 -92 51 -118q27 -22 57 -22q33 0 68 26q68 49 96 131q52 155 52 478q0 44 -1 91q-4 209 -38 592q-2 16 9 28.5t27 14.5h4q13 0 23 -9q12 -11 14 -26q35 -387 39 -598q1 -54 1 -105q0 -328 -56 -491 q-37 -106 -125 -170q-58 -43 -114 -43q-54 0 -105 41q-57 47 -78 168q-8 49 -14 166z" />
<glyph unicode="K" horiz-adv-x="1212" d="M166 1162q-1 49 -1 89.5t1 72.5q2 64 10 126q2 14 15.5 24.5t29 8.5t25.5 -15.5t8 -29.5q-8 -58 -10 -118q-1 -30 -1 -68t1 -86q2 -94 2 -126q0 -127 2 -301q57 78 131 162q0 25 24 35q4 0 9 2l170 180q254 262 356 400q8 14 24 16h6q12 0 24 -7q15 -10 16 -30 q0 -14 -9 -24q-88 -121 -360 -410l-172 -182q37 -94 94 -202t103 -183l122 -197l117 -184q8 -14 5 -29.5t-17 -23.5q-10 -6 -22 -7q-3 0 -7 1q-16 3 -24 18l-111 176l-119 188q-45 74 -102 179.5t-96 199.5q-68 -80 -121 -155q-14 -20 -39 -17q6 -387 6 -534 q0 -16 -11.5 -27.5t-27.5 -11.5t-27.5 11t-11.5 28q0 156 -5 465t-5 464q0 24 -2 122z" />
<glyph unicode="L" horiz-adv-x="905" d="M172 451q0 526 14 872q2 29 0 55.5t1 62.5t14 64q4 13 18 21q9 5 19 5q4 0 10 -1q16 -4 23 -18.5t3 -30.5q-6 -23 -8 -49.5t-1 -51t-1 -61.5q-14 -342 -14 -868q0 -82 2 -168q0 -63 2 -101v-20q14 -2 37 -4q51 -2 137 -2q59 0 144 1t90 1q16 0 27 -11.5t11 -28t-11 -27.5 t-27 -11q-4 0 -89.5 -1t-144.5 -1q-90 0 -141 2q-33 2 -51 6q-12 2 -21 4q-16 4 -25 14q-6 8 -10 19v6q-2 6 -2 14q-2 12 -2 35q-2 39 -2 103q-2 86 -2 170z" />
<glyph unicode="M" horiz-adv-x="1423" d="M299 1567q2 20 20 32q9 7 22 7q6 0 13 -2l19 -11l4 -4l6 -10q4 -6 10 -20l37 -68l107 -207l170 -344l14 -35q16 -35 29 -59q8 -14 14 -29l29 60l112 237l182 408v4q0 4 3 16q10 39 44 44q5 1 10 1q28 0 46 -26q12 -16 18 -45q8 -39 11 -109q0 -49 -7 -180 q-41 -874 -41 -1168q0 -16 -11 -27.5t-27.5 -11.5t-27.5 11.5t-11 27.5q0 311 41 1172q6 129 6 174q0 25 -2 45l-164 -369l-113 -239l-39 -80q-10 -14 -16 -25q-4 -6 -8 -10q-10 -12 -25 -14q-25 -4 -45 16q-8 10 -16 25q-14 20 -33 59q-12 25 -27.5 58.5t-15.5 35.5 l-170 342l-64 123q6 -350 7 -352q2 -33 2 -82q0 -141 -17 -414q-9 -156 -9 -276.5t9 -206.5q2 -16 -8 -29q-11 -12 -27 -14h-5q-13 0 -23 8q-12 10 -15 27q-10 89 -10 213t10 282q17 258 17 402q0 50 -2 86q0 2 -6 356q0 51 -15 144q0 2 -1 4t-3 7t-4 13q-4 16 -4 27z" />
<glyph unicode="N" horiz-adv-x="1220" d="M176 1499q-6 15 -6 27q0 20 16 36q16 15 36 15q13 0 26 -6q18 -8 37 -29q29 -29 65 -88q63 -104 107 -207q10 -27 71 -178l86 -205l66 -170q45 -117 78 -207q27 -78 57 -182q27 -88 53 -155q8 -20 17 -37l10 90q8 109 8 186q0 766 35 1170q2 14 14 25q11 9 23 9h5 q14 -2 26 -14q10 -10 10 -24l-35 -1166q0 -80 -10 -194q-4 -72 -15 -115q-4 -29 -10 -45q-12 -33 -35 -41q-9 -3 -17 -3q-20 0 -38 17q-10 10 -22 31q-16 29 -37 82q-29 70 -56 160l-59 182q-31 92 -76 205l-65 172l-84 200l-74 179q-39 94 -98 194l-19 27q6 -47 13 -281 q10 -426 24 -696q2 -25 7 -100.5t7 -115.5q1 -20 1 -45.5t-1 -57.5q-2 -62 -8 -113q-2 -14 -15 -24.5t-28.5 -8.5t-26 15.5t-8.5 29.5q6 49 9 104q1 28 1 52q0 23 -1 43q-2 38 -7 114l-8 103q-14 272 -24 700q0 14 -1 77.5t-2 89.5t-5.5 72t-10.5 83v2q-4 6 -6 16z" />
<glyph unicode="O" horiz-adv-x="1370" d="M354 687q-11 74 -11 149q-1 87 15 176q28 164 113 297q104 165 231 204q4 14 15.5 22.5t25.5 8.5q279 -14 375 -309q48 -153 49 -403q0 -44 -2 -91q-8 -256 -47 -389q-74 -254 -272 -291q-19 -3 -39 -3q-109 0 -213 110q-72 80 -143 217q-73 141 -97 302zM421 849v-14 q0 -229 99 -413q66 -129 131 -201q79 -84 157 -84q13 0 26 2q150 27 208 234q37 127 45 372q2 47 2 92q0 234 -45 373q-74 227 -274 254q-9 -18 -27 -22q-113 -23 -206 -174q-113 -182 -116 -419z" />
<glyph unicode="P" horiz-adv-x="956" d="M176 1448v5q0 13 8 25q10 14 23 17q70 13 132 13q49 0 93 -8q98 -18 167 -70t106.5 -123.5t46.5 -157.5q1 -18 1 -35q0 -94 -36 -184q-43 -106 -145.5 -188.5t-243.5 -108.5h-11q29 -360 29 -584q0 -16 -11 -27.5t-27.5 -11.5t-28 11.5t-11.5 27.5q0 225 -39 701 q-37 451 -39 675q-10 10 -14 23zM268 1425q2 -223 39 -669l4 -47q2 2 4 2q181 31 275 159q85 115 85 245q0 14 -1 28q-12 137 -116 221q-81 66 -213 66q-37 0 -77 -5z" />
<glyph unicode="Q" horiz-adv-x="1449" d="M428 508q-5 40 -5 96t5 129q10 141 37 293q31 168 74 281q35 90 75 143l-4 4q-10 12 -8 28.5t14 26.5q75 62 173 62q57 0 122 -21q76 -23 139.5 -71.5t98.5 -112.5q55 -98 77 -312q12 -113 12 -228q0 -102 -9 -205q-23 -231 -86 -388l92 -104q10 -12 10 -28.5t-12 -27 t-28.5 -10.5t-26.5 13l-72 82q-80 -139 -199 -164q-29 -6 -58 -6q-153 0 -280 170q-57 78 -94 174q-37 92 -47 176zM504 729q-4 -64 -4 -113q0 -61 6 -100q8 -72 42 -158t85 -153q101 -137 216 -137q21 0 42 4q94 18 162 149l-74 90q-123 154 -195 230q-10 12 -10 27.5 t12.5 26.5t28 11t27.5 -12q74 -78 198 -234l45 -57q47 135 66 324q8 100 8 197q0 110 -11 218q-20 201 -69 287q-27 49 -78 88t-112 60q-39 12 -74 14q-4 -27 -33 -33q-59 -10 -73 -20q-51 -39 -97 -158q-43 -109 -71 -268q-27 -145 -37 -283z" />
<glyph unicode="R" horiz-adv-x="1103" d="M158 801q0 17 14 28q-2 131 -2 238q0 39 -3 125t-3 156.5t8 132.5q2 10 10 20q-2 29 25 39q12 4 22.5 7t18.5 5t20.5 2t17.5 1q2 0 4 1q5 0 13 -2q12 -2 16.5 -2t19.5 -3t17 -3q10 -2 41 -6l54 -8q18 -4 45.5 -11.5t50.5 -17.5q119 -51 182 -192q37 -82 38 -156 q0 -61 -26 -115q-59 -131 -239 -206l-41 -17l33 -45q45 -66 67 -102q25 -41 96.5 -171t124 -212t109.5 -154q8 -10 8 -23v-6q-2 -16 -14.5 -26t-28.5 -8t-27 14q-59 76 -113 161t-127 217t-93 169q-20 33 -66 96l-47 68q-63 -18 -133 -27q8 -625 8 -700q0 -16 -11 -27.5 t-27.5 -11.5t-28 11t-11.5 28q0 74 -8 702q-14 12 -14 31zM242 1346.5q0 -64.5 3 -149.5t3 -130q0 -100 2 -221q55 8 108 22q6 8 15 15q20 12 39 2q31 8 59 20q154 63 201 168q17 38 17 81q0 57 -30 124q-53 115 -145 156q-16 6 -38.5 12t-39 9t-47.5 7l-45 6q-43 8 -69 8 q-15 0 -25 -3v-5q-8 -57 -8 -121.5z" />
<glyph unicode="S" horiz-adv-x="1085" d="M278 1207q2 46 11 98q33 150 149 204q54 26 113 26q54 0 113 -22q119 -43 176 -157q28 -56 28 -119t-28 -133q-8 -16 -22.5 -22.5t-30 1t-21.5 22t0 28.5q24 55 24 101q0 18 -4 36q-12 63 -52 106t-97 64q-44 16 -84 16q-42 0 -80 -18q-84 -39 -106 -150q-8 -39 -11 -76 q0 -37 2 -64.5t17.5 -60t23 -52t36 -51.5t38.5 -45t47 -46l49 -41l56 -43l80 -68q33 -27 70.5 -70.5t60.5 -86.5q45 -82 45 -178q0 -82 -33 -175q-25 -72 -83 -122t-132 -70q-36 -12 -75 -12q-34 -1 -70 9q-78 20 -132 85q-18 18 -30.5 41.5t-18.5 54.5l-12 49q-6 20 -8 55 t-2 50v51v43q0 16 11 27.5t27.5 11.5t27.5 -11.5t11 -27.5v-35v-39v-35q0 -25 2.5 -37t4.5 -32.5t6 -32.5l10 -31q4 -16 12 -28l17 -25q57 -64 137 -64q30 0 63 9q55 14 98.5 53t61.5 88q28 80 28 150q0 77 -34 141q-29 51 -74 96t-119 105q-6 6 -18 16l-57 47l-58 49 q-35 31 -53 55l-45 60q-25 35 -37 69q-11 33 -21 75q-8 36 -9 76q1 6 1 12z" />
<glyph unicode="T" horiz-adv-x="989" d="M27 1429.5q0 16.5 12.5 26.5t28.5 10q20 -1 47 -1q100 0 288 12l7 2q12 17 32 17q4 0 9 -1q12 -4 20 -14q83 5 153 5t126 -5q14 -3 25 -15q9 -11 9 -23q0 -18 -14 -31q-12 -11 -29 -9q-53 5 -120 5t-148 -5q-5 -2 -5 -87v-31q1 -116 1 -128q-2 -83 -2 -192q0 -163 4 -389 q6 -374 6 -502q0 -16 -11 -27.5t-27.5 -11.5t-28 11t-11.5 28q0 126 -6 502q-4 225 -4 390q0 109 2 191q0 7 -1 117v30q0 82 5 95q-178 -11 -280 -11q-29 0 -52 1q-16 0 -26 12t-10 28.5z" />
<glyph unicode="U" horiz-adv-x="972" d="M219 906q2 146 3 193.5t9.5 219.5t8.5 184q0 16 12 26.5t28.5 10.5t26.5 -12.5t10 -28.5q-2 -35 -7 -161t-7 -180t-5 -166q-2 -68 -2 -121q0 -35 1 -64q2 -72 6 -166t14.5 -175t26.5 -155q18 -92 92 -178q61 -70 117 -71q16 0 31 6q51 18 65 114q6 35 8 97q2 76 5 90 q8 74 12 164t6 142t3 171t1 149q0 39 3 118t4 126v25q0 40 -2 88q-3 66 -11 118q-2 16 8 29.5t25.5 16t29 -8t15.5 -24.5q8 -57 11 -126q2 -52 2 -92v-26q-1 -49 -4 -129t-3 -115q0 -27 -2 -151.5t-3 -175t-5 -142.5t-13 -166q-2 -16 -4 -84q-2 -66 -8 -106 q-23 -141 -119 -176q-29 -11 -58 -11q-88 0 -173 99q-86 102 -111 213q-18 88 -28.5 199.5t-15.5 188.5q-4 55 -4 145q0 36 1 78z" />
<glyph unicode="V" horiz-adv-x="1069" d="M162 1501q0 16 11 27.5t27.5 11.5t28 -11.5t11.5 -27.5q0 -55 15 -115.5t42 -138.5t39 -123q25 -86 61 -239l70 -283q33 -127 70 -237q14 -43 36 -123l31 -109q8 33 14 78q6 39 11.5 83t8.5 79t3 39l31 260q23 205 34 295t34.5 246.5t45.5 281.5q4 14 17.5 23.5t29 6.5 t24.5 -17q7 -11 7 -23v-6q-25 -125 -47 -278.5t-35 -246.5l-32 -292l-31 -259q0 -4 -4 -41l-10 -79l-9 -82q-12 -78 -26 -123q-10 -31 -23 -47q-20 -31 -49 -33h-4q-24 0 -37 20q-8 10 -10 25q0 4 -2 14v4q-16 47 -42 140.5t-40 138.5q-37 111 -71 239t-70.5 283.5 t-59.5 241.5q-10 33 -37.5 114.5t-45 151.5t-17.5 131z" />
<glyph unicode="W" horiz-adv-x="1384" d="M135 1438q-3 7 -3 14q0 6 3 14q5 14 21 22q8 4 16 4q6 0 14 -4q14 -6 23 -22q25 -57 55 -176l35 -137q41 -137 129 -395q84 -248 125 -377q37 -123 57 -211l2 2q23 59 66 203q51 168 65 211q16 49 29 76q6 16 14 26q14 18 33 25q5 1 10 1q30 0 56 -32q14 -23 33 -61 q27 -59 63 -179l51 -172q31 -109 41 -137v14q2 45 2 107v63q27 731 27 1121q0 16 11 27.5t27.5 11.5t28 -11.5t11.5 -27.5q0 -391 -27 -1125v-63q0 -61 -2 -105q-2 -66 -10 -104q-4 -27 -11 -43q-14 -31 -40 -37h-6q-12 0 -23 6q-6 2 -8 6t-4 6.5t-3.5 5.5l-3.5 7l-10 20 q-12 31 -20 56q-12 35 -49 161l-56 191q-35 113 -61 170q-6 12 -10 22q-8 -20 -19 -51q-14 -41 -65 -209q-47 -154 -68 -209q-16 -47 -33 -71q-8 -16 -18 -27q-23 -18 -47 -14q-39 8 -41 55v14v4q-20 109 -66 252l-127 381q-80 236 -127 391q-10 35 -37 142q-29 111 -53 168 z" />
<glyph unicode="X" horiz-adv-x="1251" d="M162 1464q-3 6 -3 13q0 9 4 17q7 16 21 22q7 3 14 3q8 -1 16 -5q15 -8 22 -21q33 -80 78.5 -170t78.5 -147l101 -164l92 -152l24 47q18 35 43 75t43 67l49 69l46 66q109 162 145 274q4 14 18.5 21.5t29.5 3.5t22.5 -18.5t3.5 -30.5q-39 -125 -156 -295l-45 -66l-49 -69 l-39 -62q-25 -39 -41 -72l-49 -88l47 -82l104 -204q76 -150 134.5 -252.5t121.5 -190.5q8 -10 8 -23v-6q-2 -16 -15 -25q-11 -7 -24 -7h-5q-16 2 -25 16q-66 90 -126 196.5t-138 256.5l-105 203l-20 38l-336 -618q-8 -14 -23.5 -18.5t-30 3t-18.5 22.5t2 30l361 659l-99 162 l-104 176q-41 66 -91 163t-87 183z" />
<glyph unicode="Y" horiz-adv-x="1261" d="M107 1466q4 15 18 22t29.5 3t23.5 -18q53 -100 217 -349q125 -188 183 -286q10 25 30 53l23 29q10 14 16 24q29 47 174 268q104 162 162 271q8 14 23 18q6 1 12 1q9 0 18 -4q15 -7 19 -22q2 -7 2 -13q0 -9 -4 -17q-59 -111 -166 -277q-145 -219 -174 -266l-21 -31 l-20 -26q-20 -29 -27 -47q-6 -28 -6 -77v-26q0 -10 3 -53t3 -63q0 -309 -8 -484q0 -16 -12.5 -26.5t-28.5 -10.5t-26.5 12.5t-10.5 28.5q8 170 8 480q0 20 -2 61t-4 53v23q-8 6 -14 14q-63 121 -217 350q-164 244 -221 355q-4 8 -4 17q0 6 2 13z" />
<glyph unicode="Z" horiz-adv-x="1155" d="M182 39q-5 11 -5 23q0 18 13 36q8 8 11 13q20 35 37.5 73.5t39 94t33.5 79.5q162 383 291 754q4 8 21 51q18 43 28 72q16 41 21 65q2 8 4 15h-4q-16 6 -45 10q-49 10 -144 18q-246 27 -258 31q-16 2 -24 16.5t-5 29.5q4 16 18 24q10 5 19 5q5 0 9 -1q8 0 250 -27 q104 -12 149 -18q35 -8 55 -14q33 -10 45 -29q12 -16 13 -41q0 -14 -4 -35q-8 -31 -25 -78l-31 -73q-16 -39 -18 -46q-129 -373 -295 -757q-8 -25 -27.5 -74t-37 -89t-35.5 -75q39 -2 90 -4l542 -20q16 0 26.5 -12.5t10.5 -29t-12 -26.5t-29 -10l-542 20q-70 4 -117 6 q-16 0 -27 2h-6h-4h-2q-2 0 -2 2h-6q-12 4 -21 19z" />
<glyph unicode="[" horiz-adv-x="786" d="M193 -248q0 18 2 49q4 51 10 144q2 39 6 97t7 92t3 44q6 115 9 254t3 230.5t-1 261.5t-1 239q0 25 -4 89.5t-4 88.5q-6 135 13 187q14 43 63 59q31 12 78 15q20 0 76 -3q39 0 51 3q16 2 28.5 -7.5t15.5 -26t-6.5 -28.5t-25.5 -16q-20 -2 -65 -2q-53 2 -72 2 q-35 -2 -53 -8q-14 -6 -17 -13q-14 -39 -8 -157q0 -27 4 -92.5t4 -90.5q0 -68 1 -239.5t0 -263t-3 -231.5t-8 -255q0 -10 -3 -44t-7 -92t-6 -99q-8 -92 -11 -142q-2 -31 -2 -45q6 -2 17 -4q31 -4 86 0q39 2 99 10.5t67 8.5q16 2 28.5 -9.5t14.5 -27t-9.5 -27.5t-25.5 -14 q-8 0 -69.5 -8.5t-100.5 -10.5q-61 -4 -98 0q-63 8 -82 43l-4 17v8v14z" />
<glyph unicode="\" horiz-adv-x="1128" d="M45 1569q-2 16 9.5 28.5t26.5 14.5t27.5 -9.5t14.5 -25.5q8 -96 115 -299q18 -35 82.5 -148.5t85.5 -160.5l98 -215l110 -256l93 -217q18 -41 87.5 -227.5t123.5 -274.5q8 -14 5 -29.5t-17.5 -24t-30 -5t-23.5 17.5q-57 92 -132 290.5t-83 219.5l-94 219l-109 254 l-98 215q-23 47 -86 158l-80 147q-117 219 -125 328z" />
<glyph unicode="]" horiz-adv-x="659" d="M76 1551.5q-2 15.5 9.5 27.5t25.5 14q74 6 139 9q55 2 84 2q20 0 33 -2q23 -2 32 -11q14 -8 21 -26q2 -8 4 -19q2 -18 4 -47q2 -47 2 -129q0 -55 -1 -135t-1 -82q0 -188 10.5 -562t10.5 -560q0 -209 4 -271q0 -2 2 -41l2 -26v-8v-4v-3v-2v-2q0 -2 -2 -4q-2 -10 -9 -18 q-12 -12 -36 -17q-12 -2 -33 -4h-82q-84 4 -139 9q-16 2 -26.5 14t-8.5 28.5t14 26.5t29 8q51 -6 133 -8h76h4v6q-2 39 -2 41q-4 63 -4 275q0 186 -10.5 560t-10.5 562q0 2 1 82t1 135q0 80 -2 125q-2 18 -2 31h-16q-23 0 -78 -2q-68 -2 -135 -8q-16 -2 -28.5 9t-14.5 26.5z " />
<glyph unicode="^" horiz-adv-x="1136" d="M70 828.5q0 15.5 10 27.5q88 92 176 279l35 77l39 82l37 74q23 45 45 80v2q2 4 6 14q14 39 51 37q29 0 63 -37q25 -23 60 -67q51 -70 133 -203l86 -141l78 -135q35 -63 37 -68q8 -14 4 -29.5t-17.5 -24t-29 -4t-23.5 16.5q-4 6 -39 68l-78 135l-84 141q-82 133 -131 197 q-29 39 -49 59l-2 -2q-20 -33 -43 -76l-35 -69q-14 -29 -37.5 -82.5t-35.5 -77.5q-92 -199 -189 -299q-12 -12 -27.5 -12t-27.5 11t-12 26.5z" />
<glyph unicode="_" horiz-adv-x="1286" d="M-30.5 -262.5q-6.5 14.5 0.5 30t21.5 21.5t28.5 -2q121 -51 486 -47q129 4 289.5 1t255.5 -22q14 -4 23 -17t6 -28.5t-16 -24.5t-30 -7q-88 18 -240.5 21t-287.5 -1q-379 -4 -514 55q-16 6 -22.5 20.5z" />
<glyph unicode="`" horiz-adv-x="788" d="M182.5 1413q-0.5 17 12 27t29 10t26.5 -12q41 -45 94 -90l121 -103l106 -88q10 -10 11.5 -26.5t-9 -27.5t-27 -12t-28.5 9l-100 84l-127 106q-55 49 -98 94q-10 12 -10.5 29z" />
<glyph unicode="a" horiz-adv-x="1110" d="M285 569q23 174 127 267q74 65 164 66q61 0 129 -30q43 -18 75 -45q2 18 6 74v2v6q-2 6 -2 9q-4 14 0 26q8 33 43 33q20 0 33 -19q4 -4 6 -10q0 -4 2 -10q2 -8 4 -25q2 -25 5 -67q6 -63 8 -125l4 -80v-2v-6q16 -352 16 -516q0 -16 -11 -27.5t-27.5 -11.5t-28 11t-11.5 28 q0 115 -6 258q-2 -14 -4 -27q-29 -127 -76 -194q-59 -80 -144 -80q-13 0 -26 2q-111 16 -183.5 98t-94.5 186q-14 62 -14 125q0 42 6 84zM362 559q-5 -38 -5 -74q1 -107 45 -195q60 -120 182 -136q7 -1 14 -1q46 0 80 47q39 54 63 165q27 125 35 358q-37 49 -100 76 q-52 22 -97 22q-65 0 -116 -45q-82 -72 -101 -217z" />
<glyph unicode="b" horiz-adv-x="1005" d="M211 1634q0 16 12.5 26.5t28.5 10.5t26.5 -12.5t10.5 -28.5q-6 -126 -6 -305q0 -209 8 -491v-54q57 45 137 58q31 4 61 4q123 0 207 -78q92 -86 105 -229q1 -16 1 -32q0 -121 -67 -233q-76 -126 -225 -166q-56 -16 -109.5 -16t-103.5 16q0 -37 -2 -73q0 -16 -12.5 -26.5 t-28.5 -10.5t-26.5 12t-10.5 29q3 102 3 250q0 222 -7 546q-7 306 -7 517q0 176 5 286zM295 659q4 -214 4 -373v-100q48 -21 102 -20q42 0 88 12q119 36 181 136q54 89 54 188q0 13 -1 26q-8 113 -80 179q-60 57 -152 57q-24 0 -51 -4q-106 -14 -145 -101z" />
<glyph unicode="c" horiz-adv-x="962" d="M266 389q-5 48 -5 96q0 65 9 131q8 59 25 109q18 49 48 93t77 68q43 23 99 23h9q96 -4 150 -57q35 -35 76 -129q5 -8 5 -16q0 -5 -3 -13q-6 -16 -20.5 -23t-30 -1t-21.5 20q-37 82 -61 107q-31 33 -99 34h-5q-139 0 -173 -225q-7 -62 -7 -122q0 -45 4 -88q9 -101 34 -165 q25 -67 69 -99q41 -30 81 -30h5q45 4 79 44t42 116q2 16 14.5 26.5t29 8.5t26.5 -14.5t8 -28.5q-10 -100 -62.5 -160.5t-127.5 -66.5q-11 -1 -21 -1q-62 0 -118 41q-64 48 -99 136q-27 74 -37 186z" />
<glyph unicode="d" horiz-adv-x="1058" d="M297 516q0 213 74 307q68 84 196 95q10 1 20 1q84 0 148 -47q12 526 13 670q0 16 11 27.5t27.5 11.5t27.5 -11t11 -28q0 -156 -12 -643q2 -4 4 -10q8 -57 14 -119l15 -22q8 -10 8 -22v-6q-2 -16 -16 -26q0 -2 -2 -2q1 -37 1 -85q1 -101 -5 -245q-8 -212 -9 -282 q0 -16 -11 -27.5t-27.5 -11.5t-28 11t-11.5 28v22q-35 -24 -84 -24t-112 24q-109 43 -168 107q-82 90 -84 307zM375 516q2 -186 63 -254q47 -51 140 -88q50 -19 83 -19q31 0 46 17q8 8 14 45t8 92q2 43 2 68.5t-1 61.5t-1 44q0 125 4 285q-37 40 -71 58q-28 14 -71 15 q-10 0 -20 -1q-92 -6 -139 -66q-27 -33 -42 -103.5t-15 -154.5z" />
<glyph unicode="e" horiz-adv-x="925" d="M158 547q-8 63 -8 122q0 119 32 216q57 174 189 200q30 6 58 6q126 0 198 -122q57 -96 78 -267q0 -6 4 -30q6 -29 8 -43q4 -27 4 -48q-1 -31 -9 -49q-14 -30 -53 -45q-6 -2 -16 -2q-6 -2 -16 -2h-47q-35 0 -136 2q-74 1 -123 1t-75 -1q27 -135 84 -227q78 -123 184 -125 h4q52 0 80 57q23 45 35 142q2 14 15.5 24.5t28.5 8t25.5 -15.5t8.5 -30q-14 -109 -43 -163q-49 -101 -152 -101h-2q-150 4 -250 162q-84 133 -106 330zM233 563q26 1 79 1t132 -1q100 -2 136 -2h45h12l6 4q2 3 2 12q0 13 -4 39q-2 14 -8 41q-4 27 -6 37q-18 154 -66 234 q-50 84 -136 84q-18 0 -38 -4q-88 -16 -129 -146q-30 -91 -31 -202q1 -47 6 -97z" />
<glyph unicode="f" horiz-adv-x="776" d="M8 829.5q0 16.5 10.5 28.5t26.5 12q45 2 143 7q0 150 7 389q4 182 59 274q41 70 111 78q9 1 19 1q65 0 142 -58q14 -8 16.5 -24.5t-7 -30t-25.5 -15.5t-29 8q-61 43 -101 43h-7q-31 -4 -54 -43q-43 -74 -47 -233q-6 -225 -6 -385q160 8 266 8q16 0 27.5 -11.5t11.5 -27.5 t-11 -27.5t-28 -11.5q-106 0 -266 -8v-65q0 -369 21 -668q0 -16 -10.5 -27.5t-26.5 -12.5h-3q-15 0 -25 10q-11 10 -13 26q-21 298 -21 668v65l-139 -6q-16 0 -28.5 10t-12.5 26.5z" />
<glyph unicode="g" horiz-adv-x="1064" d="M280 -248v20q0 21 1 49q2 42 2 52q0 16 11 27.5t27.5 11.5t27.5 -11.5t11 -27.5q0 -20 -1 -59t-2 -59.5t4.5 -48.5t15.5 -46q31 -61 85 -82q34 -14 70 -14q22 0 44 5q61 13 111 55t69 102q14 45 18 104q4 44 4 79v22q-2 42 -8 120l-6 109q0 18 -2 37q-45 -127 -125 -162 q-27 -12 -55 -12q-47 0 -95 36q-70 51 -135 179q-35 70 -44 200q-2 34 -2 67q0 94 18 183q31 141 100 205q52 47 118 47q48 0 103 -25q49 -20 103 -79q2 129 4 182q0 14 12 25.5t29 11.5q6 0 10 -2q9 5 19 5q4 0 7 -1q14 -4 23 -17q8 -12 8 -25v-5q-8 -37 -10 -78 q-1 -27 -1 -63v-37q1 -60 1 -87l-6 -194q-4 -131 -5 -193v-27q0 -61 3 -167q2 -25 7 -104.5t7 -125.5v-25q0 -39 -4 -89q-6 -68 -23 -119q-27 -80 -91 -136.5t-146 -72.5q-31 -7 -60 -7q-52 0 -102 21q-78 31 -123 117q-14 27 -20 65t-7 64zM385 442q8 -115 37 -168 q57 -113 113 -153q26 -20 49 -20q12 0 22 5q37 16 69 82t46 170q10 70 20 273q2 41 4 88q-8 8 -22 26.5t-23 24.5l-20 23q-12 14 -21.5 22t-21.5 16.5t-25 14.5q-37 16 -68 16q-39 0 -69 -26q-51 -47 -74 -164q-18 -88 -18 -176q0 -27 2 -54z" />
<glyph unicode="h" horiz-adv-x="878" d="M145 696q1 84 17 281q15 185 15 322v17q-1 142 -32 267v5q1 12 7 24q8 14 23 17q4 1 8 1q11 0 21 -6q14 -8 19 -25q23 -102 28 -238q3 -76 3 -132q0 -45 -2 -78q-4 -74 -16 -244q70 88 167 115q28 7 56 7q33 -1 64 -11q57 -20 91 -82q62 -117 62 -420v-10 q-2 -94 -11.5 -252t-9.5 -182q0 -16 -12 -26.5t-28.5 -10.5t-26.5 12t-10 29q0 23 9 179.5t11 252.5v20q0 273 -53 371q-28 53 -83 53q-18 0 -38 -6q-84 -22 -135 -98q-35 -47 -53 -156q-2 -14 -13 -22v-57q0 -93 4 -230q10 -227 11 -315q0 -16 -11.5 -27.5t-28 -11.5 t-27.5 11t-11 28q0 88 -8 313q-7 193 -7 292v23z" />
<glyph unicode="i" horiz-adv-x="548" d="M123 1305q-5 15 -5 30q0 33 25 66q33 43 84 47q6 1 11 1q53 0 88 -52q20 -30 20 -61t-20 -62q-31 -45 -86 -62q-19 -5 -36 -5q-45 0 -67 36q-15 20 -15 49q0 6 1 13zM174 508q8 155 8 259q0 90 -6 144q-2 16 8.5 28.5t26.5 14.5t28.5 -8t14.5 -26q5 -46 5 -137 q0 -108 -7 -279q-3 -81 -4 -151q0 -153 16 -249v-6q0 -14 -7 -24q-9 -14 -25 -15h-6q-12 -1 -24 7q-14 10 -16 26q-16 99 -16 255q0 74 4 161zM207 1319q12 -8 35 -12q4 -2 6 -4q8 8 12 14q6 9 6 19t-6 20q-10 16 -27 16q-4 -2 -10 -4q2 -12 -4 -25q-8 -12 -12 -24z" />
<glyph unicode="j" horiz-adv-x="528" d="M37 -193q0 16 11 27.5t27.5 11.5t28 -11t11.5 -28q0 -147 4 -172q6 -53 18 -75l6 -6l7 2q6 4 16 32q12 35 20 95q8 70 11 184q1 29 1 76t-1 112q-1 61 -1 108.5t1 80.5q2 86 12 223q10 147 12 220q1 18 1 41q0 69 -5 179q-2 14 9.5 26.5t26.5 14.5t27.5 -9.5t14.5 -27.5 q5 -113 5 -183q0 -24 -1 -42q-2 -76 -12 -223q-10 -141 -13 -223q-1 -30 -1 -77t1 -110q1 -65 1 -111t-1 -75q-2 -119 -12 -195q-8 -68 -22 -110q-23 -63 -62 -80q-18 -7 -35 -7q-14 0 -28 5q-27 10 -43 39q-23 37 -31 106q-4 31 -4 182zM152 1393q4 20 18 30q13 11 29 13 q20 27 51 28q35 0 55 -32q14 -23 19 -58q1 -10 1 -20q0 -25 -8 -41q-12 -37 -49 -39h-7q-35 0 -73 39q-16 16 -24 33q-12 22 -12 41v6z" />
<glyph unicode="k" horiz-adv-x="882" d="M143 1593v5q-1 12 7 24q10 14 26 16h6q13 0 24 -7q13 -9 15 -25q8 -66 12 -127q4 -68 5.5 -156t3.5 -123q14 -334 20 -600l328 442q10 14 25.5 16.5t28.5 -8t15.5 -25.5t-8.5 -28l-342 -465q41 -57 156 -186q137 -156 203 -221q12 -10 12 -26.5t-11.5 -28t-27.5 -11.5 t-27 13q-74 72 -208 223q-96 109 -142 166q4 -193 4 -371q0 -16 -11 -27.5t-27.5 -11.5t-28 11.5t-11.5 27.5q0 459 -26 1106q-2 53 -4 127q0 86 -3 149.5t-14 120.5z" />
<glyph unicode="l" horiz-adv-x="471" d="M172 113q18 168 18 402q0 71 -2 149q0 49 -5 250.5t-5 308.5q0 29 -2 113q-1 56 -1 103v43q1 62 9 120q2 16 16 25q11 7 24 7h6q16 -2 25 -15.5t7 -29.5q-8 -53 -9 -111v-41q0 -44 1 -98q2 -82 2 -116q0 -106 5 -307t5 -250q1 -72 2 -139q0 -245 -18 -423q-2 -16 -14 -26 q-10 -8 -24 -8h-6q-16 2 -26 14q-8 10 -8 23v6z" />
<glyph unicode="m" horiz-adv-x="1187" d="M163 641v62q0 78 1 217q0 16 12 26t28.5 10t27 -12t10.5 -29q-2 -43 -2 -88q8 16 16 31q68 117 178 125q18 1 31.5 1t21.5 -1q37 -8 60 -43q14 -23 24 -55q12 16 29 33q60 54 148 55q14 0 28 -2q106 -10 160 -140q37 -90 45 -253q3 -48 3 -106q0 -77 -5 -169 q-10 -186 -10 -192q0 -16 -11.5 -27.5t-28 -11.5t-27.5 11t-11 28q0 8 10 196q5 90 5 164q0 55 -3 102q-8 147 -41 230q-33 84 -94 90q-10 1 -19 1q-59 0 -96 -34q-39 -37 -61 -115v-4v-71q0 -57 -3 -151.5t-3 -119.5v-34v-54v-61q0 -53 -2 -84q-2 -20 -4 -33l-5 -16 q-12 -23 -34 -25q-20 -2 -35 14q-6 8 -10 17q-2 8 -4 22q-2 18 -3 62v96v131q0 218 23 314q-6 113 -31 151q-4 6 -9 7t-34 -1q-68 -4 -114 -86q-35 -61 -60 -168q-6 -18 -22 -26q2 -100 12 -284.5t12 -256.5q0 -16 -10 -28.5t-26.5 -12.5t-29 10t-12.5 27q-2 68 -13 279.5 t-12 281.5z" />
<glyph unicode="n" horiz-adv-x="897" d="M182 758q2 58 4 174q2 16 13.5 26.5t28 9.5t26.5 -12.5t10 -27.5q-4 -57 -4 -117q23 41 49 76q70 88 150 100q10 1 19 2q84 0 149 -98q66 -100 67 -395q0 -84 -6 -226.5t-6 -181.5q0 -16 -11.5 -27.5t-27.5 -11.5t-27.5 11.5t-11.5 27.5q0 39 6 181.5t6 226.5 q-2 270 -55 354q-39 60 -83 60q-5 0 -9 -1q-47 -6 -99 -71q-54 -66 -80 -151q-18 -59 -17 -101q0 -19 3 -35q6 -21 -8 -37q6 -84 19.5 -239.5t17.5 -196.5q2 -16 -9 -28q-10 -13 -26 -15h-5q-13 0 -23 9q-12 11 -15 26q-4 55 -14 170.5t-14 171.5q-3 56 -11 172 q-6 91 -6 147v27z" />
<glyph unicode="o" horiz-adv-x="1036" d="M334 477q-5 51 -5 99q0 114 27 210q33 117 99 156q20 25 43 35q22 9 43 9q47 0 94 -40q47 -39 94 -119q37 -66 66 -139q27 -72 32 -113q6 -37 6 -75q0 -113 -51 -242q-2 -2 -4 -8q-12 -35 -22.5 -55.5t-37 -50t-59.5 -42.5q-39 -14 -75 -14q-94 0 -160 98 q-72 106 -90 291zM412 483q16 -164 75 -252q43 -63 101 -63q21 0 43 8q27 10 42 35t36 76q46 116 46 214q0 32 -5 62q-4 33 -30 99.5t-58 125.5q-39 68 -78 99q-19 16 -35 18q-8 -23 -35 -24q-6 0 -10 -2q-8 -10 -17 -17q-8 -8 -18 -12q-23 -29 -39 -84q-23 -85 -23 -187 q0 -46 5 -96z" />
<glyph unicode="p" horiz-adv-x="894" d="M119 954q2 14 14 26q10 9 23 9h4q16 -2 27.5 -14t9.5 -29q-2 -12 -2 -26q61 36 133 36q15 0 30 -2q80 -6 144.5 -43t101.5 -91t61.5 -122.5t24.5 -139.5t-10 -142q-37 -197 -166 -303q-98 -81 -219 -81q-29 0 -59 5q12 -309 51 -533q2 -14 -7.5 -27.5t-24.5 -16.5 q-4 -1 -7 -1q-11 0 -22 7q-13 10 -17 26q-41 233 -53 565q-29 16 -19 47q5 15 17 21q-2 49 -6.5 225t-8.5 271q0 16 -13 141q-9 86 -9 144q0 27 2 48zM199 823q0 -12 8 -83.5t10 -114.5q4 -98 8 -277.5t6 -230.5q33 -7 64 -7q94 0 170 62q106 88 139 258q10 54 10 105 q0 53 -11 103q-21 97 -86.5 163.5t-166.5 75.5q-9 1 -19 1q-33 0 -66 -12q-42 -14 -66 -43z" />
<glyph unicode="q" horiz-adv-x="1042" d="M184 559q35 182 135 289q86 93 196 93q13 0 26 -1v16v27v4v6q0 4 2 8q4 16 24 23q7 2 13 2t12 -2q10 -4 14 -10l6 -6l4 -9l2 -10v-6q4 -53 7 -115q2 -8 4 -34.5t4 -40.5q6 -61 6 -107q0 -6 2 -85q1 -53 1 -101v-46q-1 -69 -9 -130q-4 -27 -8 -50q0 -264 20 -442 q18 -158 35 -227q18 -78 39 -111q10 -12 14 -14q2 0 6 2q14 8 19 49q2 18 2 45v43q0 16 12 26.5t28.5 10.5t27 -12.5t10.5 -28.5v-39q0 -33 -2 -53q-10 -80 -56 -107q-24 -15 -47 -15q-13 0 -26 5q-29 12 -52 45q-31 43 -51 135q-18 70 -37 238q-14 126 -18 276 q-42 -44 -103 -44q-10 0 -20 1q-158 18 -221 183q-34 86 -34 187q0 63 13 132zM261 546q-12 -64 -12 -121q0 -86 27 -157q47 -121 158 -133q5 -1 10 -1q42 0 68 44q23 37 35 105q0 49 2 120q2 132 2 232q0 150 -4 227q-15 3 -30 3q-77 0 -142 -70q-84 -90 -114 -249z" />
<glyph unicode="r" horiz-adv-x="892" d="M155 755q1 40 6 92t13 93q4 16 18 24q11 6 22 7q4 0 8 -1q16 -3 24 -17.5t6 -28.5q-20 -82 -20 -201q0 -28 1 -59q20 70 52 122q59 111 147 148q42 17 88 17q68 0 146 -38q14 -6 20 -21q3 -7 3 -14q0 -8 -4 -16q-7 -14 -22.5 -20t-29.5 2q-59 28 -109 28q-33 0 -61 -12 q-63 -25 -111 -110q-41 -78 -62.5 -183.5t-21.5 -199.5q0 -35 2 -146q2 -45 2 -63v-21v-6v-6q-2 -4 -2 -8q-6 -17 -24 -23q-9 -3 -18 -3t-16 4q-15 7 -22 26q-6 10 -4 29q0 4 2 18v10q-2 27 -4 92q-2 63 -6 101q-2 18 -8 86.5t-8 99.5t-5 95q-2 48 -2 82v21z" />
<glyph unicode="s" horiz-adv-x="770" d="M145 225q-3 6 -3 13q0 8 4 16q8 16 22 22.5t29.5 -1t21.5 -21.5q2 -4 4 -11t5 -15.5t5 -14.5q8 -23 17 -39q16 -35 37 -41q16 -5 33 -5q36 0 80 24q64 34 79 81q9 30 9 56q0 42 -23 76q-25 35 -113 98q-47 37 -73.5 59.5t-62.5 66.5t-50 99q-10 38 -10 83q0 19 2 40 q8 93 78 147q62 48 135 48h16q90 -4 137 -76q35 -50 35 -123q0 -34 -8 -74q-4 -16 -17.5 -24.5t-30 -5t-24.5 17t-6 29.5q6 32 6 58q0 47 -20 79q-25 39 -76 41h-11q-47 0 -86 -31q-44 -35 -50 -94q-1 -16 -1 -30q0 -33 6 -62q9 -41 36.5 -76t52 -55.5t69.5 -53.5 q98 -72 129 -118q37 -54 37 -119q0 -36 -12 -76q-23 -82 -116 -131q-61 -32 -117 -32q-30 0 -58 9q-51 16 -82 82q-10 18 -20 47q0 2 -5 16.5t-10 20.5z" />
<glyph unicode="t" horiz-adv-x="681" d="M-23 868.5q0 16.5 12.5 26.5t28.5 10q76 -2 160 -8v78q0 39 1 81t3 81t7.5 81t11.5 80q4 16 17 24q10 6 21 7q5 0 9 -1q16 -3 24.5 -16.5t6.5 -29.5q-10 -43 -15.5 -94t-6.5 -97.5t-1 -99.5v-98q86 -6 186 -14q14 -3 26 -15q10 -11 9 -23q0 -18 -14 -31q-12 -11 -29 -9 q-96 8 -178 14q-2 -78 -12.5 -349t-10.5 -419q0 -16 -11 -27.5t-27.5 -11.5t-27.5 11.5t-11 27.5q0 147 10 419.5t12 352.5q-86 6 -164 8q-16 0 -26.5 12.5t-10.5 29z" />
<glyph unicode="u" horiz-adv-x="987" d="M186 930q0 16 12.5 26.5t29 10.5t26.5 -12.5t10 -28.5q-3 -79 -3 -152q0 -201 24 -354q27 -154 73 -246q53 -100 131 -121q20 -4 43 -4q25 0 33 4q66 33 101 135q31 92 36 242q3 39 3 93q0 72 -5 171q-8 193 -8 213q0 16 11.5 27.5t28 11.5t27.5 -11t11 -28q0 -18 8 -209 q5 -101 5 -175q0 -56 -3 -97q-6 -160 -41 -262q-45 -133 -137 -180q-27 -12 -70 -13q-33 0 -59 9q-115 27 -182 157q-55 102 -82 271q-26 162 -26 372q0 72 3 150z" />
<glyph unicode="v" horiz-adv-x="911" d="M223 961v5q-1 12 7 24q10 14 26 16h5q13 0 25 -8q14 -10 15 -25q16 -109 29 -336q12 -233 28 -330q6 -43 21 -104l8 20l90 283q137 428 154 471q6 14 21.5 21.5t29.5 1t22 -21.5q4 -8 4 -17q0 -7 -3 -13q-16 -41 -154 -465l-90 -284l-31 -93l-8 -26l-4 -8q0 -2 -1 -3 t-1 -3l-4 -5q-4 -8 -13 -12q-10 -5 -20 -5q-13 0 -25 9q-6 6 -12 15.5t-12 23.5q-8 25 -19 66q-20 78 -30 137q-14 96 -29 338q-12 223 -29 328z" />
<glyph unicode="w" horiz-adv-x="1191" d="M125 944q-3 6 -3 13q0 9 4 17q7 16 21.5 21.5t30 -1.5t21.5 -21l256 -678l16 -49q12 -37 21 -56q2 23 6 56q4 20 10 79.5t11 101.5t11 73q6 27 21 53q0 2 2 6q4 10 6 16q6 14 14 23q20 18 46 10t49 -47q14 -25 30 -67q23 -59 62 -185l45 -147q2 25 6 58.5t4 39.5l33 223 q20 147 35.5 265t25.5 225q3 17 15 27q10 9 23 8h5q16 -2 27 -14q8 -10 8 -24v-5q-10 -106 -25.5 -224t-35.5 -268l-33 -225l-4 -43q-6 -41 -10 -70q-6 -41 -13 -65q-4 -16 -10 -27q-10 -23 -29 -31q-8 -3 -15 -3q-20 0 -36 20q-6 8 -14 22q-8 16 -23 60q-10 31 -55 176 q-37 123 -57 178l-15 35q-4 -8 -4 -17q-8 -29 -13 -67.5t-10 -96t-10 -83.5q-8 -74 -20 -111q-8 -27 -20 -41q-17 -23 -42 -23q-8 0 -16 2q-12 2 -22 15q-4 4 -6 10l-11 21q-8 18 -20 53l-21 55q-12 39 -16 49z" />
<glyph unicode="x" horiz-adv-x="1005" d="M136 962q3 16 17.5 23.5t30 4.5t23.5 -17l239 -373q72 244 144 395q6 15 22 21q7 3 14 3q8 0 15 -4q14 -7 20.5 -22.5t-2.5 -29.5q-76 -166 -155 -445q145 -209 289 -387q8 -10 8 -23v-6q-3 -16 -15 -26q-10 -8 -23 -8h-5q-16 2 -27 14q-125 158 -254 338 q-41 -160 -74 -320q-4 -16 -17 -24t-29.5 -5t-24.5 16t-6 30q41 194 94 387q-143 209 -279 428q-6 10 -6 21q0 5 1 9z" />
<glyph unicode="y" horiz-adv-x="761" d="M133 924q6 14 21.5 21t30 1t20.5 -20q57 -133 168 -334l88 -160q-4 307 -4 537q0 16 11 27.5t27.5 11.5t28 -11.5t11.5 -27.5q0 -270 6 -686l12 -27q5 -10 5 -19q0 -16 -17 -28l2 -117q0 -37 3 -107.5t3 -84.5q2 -48 2 -89q0 -61 -4 -108q-2 -37 -24.5 -94.5t-53.5 -97.5 q-43 -57 -90 -70q-11 -2 -21 -2q-50 0 -90 55q-33 43 -39 125q0 23 -2 59v52q0 16 10.5 28.5t27 12.5t28.5 -10.5t12 -26.5v-53q2 -35 2 -56q4 -59 23 -86q18 -25 32 -22q18 6 44 39q25 35 43 81t20 70q4 46 4 105q0 40 -2 86q0 12 -3 83.5t-3 110.5l-2 172q-27 51 -158 289 q-113 207 -170 340q-5 9 -5 18q0 6 3 13z" />
<glyph unicode="z" horiz-adv-x="958" d="M123 895q0 16 12.5 26.5t28.5 10.5q113 -4 229 -23q2 0 21.5 -3t47 -8t52.5 -9q49 -8 78 -12q18 -4 29 -9q6 0 10 -2l8 -4q10 -6 14 -14q10 -14 6 -37q0 -10 -4 -27q-8 -25 -24 -65q-29 -70 -82 -180l-154 -303q-25 -47 -82 -142l-14 -20q10 0 20 2q92 10 396 10 q16 0 27.5 -11.5t11.5 -27.5t-11.5 -27.5t-27.5 -11.5q-299 0 -387 -10q-29 -2 -52 -4q-18 -2 -30 -2h-17q-4 2 -10 2q-10 4 -18 12q-10 10 -11 31q0 4 3 8q0 2 2 4q0 2 2 4l4 6l10 19l35 57q55 90 80 137l151 299q53 111 82 177q12 31 19 51h-3q-27 6 -73 14q-25 4 -51 8 l-50 6q-18 4 -20 4q-113 18 -221 23q-16 0 -26.5 12.5t-10.5 28.5z" />
<glyph unicode="{" horiz-adv-x="821" d="M53 571q0 39 37 50q14 4 35 2q4 0 12 -2.5t15 -2.5h6q98 33 118 117q16 74 -2 180l-12 54q-6 35 -8 43q-10 59 -14 100q-6 76 6 178.5t45 184.5q43 104 110 141q88 47 197 -21q14 -8 17 -23.5t-5 -29.5t-23.5 -17t-29.5 5q-72 43 -119 18q-43 -25 -76 -102 q-29 -74 -40 -167t-5 -159q2 -39 15 -94q0 -6 7 -42t11 -54q23 -123 0 -211q-23 -102 -125 -156q80 -57 97 -168q10 -66 -13 -196q-33 -193 -35 -209q-12 -113 11.5 -180.5t101.5 -96.5q72 -27 160 6q16 6 30.5 -1t20.5 -22t-1 -29.5t-22 -20.5q-117 -43 -217 -6 q-78 29 -118.5 89t-43.5 127.5t1 141.5q2 20 34 215q20 119 13 170q-8 66 -32 115t-56 16l4 -2l-10 2l-27 6q-18 6 -29 8q-8 2 -12 4l-8 5q-4 2 -8 6q-12 12 -13 28z" />
<glyph unicode="|" horiz-adv-x="802" d="M471 979q-25 340 10 508q4 16 17.5 24.5t30 5t24.5 -17t6 -29.5q-33 -156 -10 -485q4 -55 20.5 -242.5t20.5 -269.5q8 -223 8 -528q0 -31 -3 -84.5t-3 -78t6 -75.5q2 -16 -8 -29.5t-25.5 -15.5t-29 8.5t-15.5 24.5q-4 39 -5 82t2 94t3 74q0 305 -8 524q-2 82 -20 268 q-16 182 -21 242z" />
<glyph unicode="}" horiz-adv-x="749" d="M82 1539q-6 15 1 29.5t21 20.5q90 33 166 -18q61 -41 103 -131q33 -76 47 -165t6 -153q-6 -39 -27 -110q-20 -80 -26 -113q-23 -119 26 -182q25 -31 66 -43q4 2 16 2q41 2 58 -27q18 -31 -4 -59q-8 -12 -29 -29l-33 -20q-27 -18 -43 -31q-100 -78 -96 -174q2 -33 26 -152 q29 -129 33 -200q10 -119 -26 -189q-47 -90 -168 -96q-16 0 -28.5 10t-12.5 26.5t10 29t27 12.5q76 4 104 55q25 49 18 145q-6 66 -32.5 191t-28.5 164q-6 137 127 239l45 33q-53 16 -90 64q-72 92 -43 245q8 33 31 119q18 68 22 103q8 51 -5 128.5t-42 143.5 q-33 72 -75 100.5t-93 8.5q-16 -6 -30.5 1t-20.5 22z" />
<glyph unicode="~" horiz-adv-x="1390" d="M190 1313q0 74 36 130t91.5 80.5t122 31t123.5 -18.5q25 -8 45.5 -22.5t34.5 -27.5t31.5 -36t25.5 -33l23 -39q16 -27 20 -32q37 -61 74 -91t98 -34q80 -4 117 24q84 66 76 238q0 16 10 28.5t26.5 12.5t29 -10.5t12.5 -26.5q8 -211 -105 -303q-59 -47 -170 -41 q-86 6 -138 48t-95 112q-6 8 -23 36l-22 37q-4 6 -18.5 25.5t-23.5 28t-23.5 17.5t-28.5 15q-100 37 -185.5 -8t-85.5 -141q0 -16 -11 -27.5t-27.5 -11.5t-28 11.5t-11.5 27.5z" />
<glyph unicode="&#xad;" d="M-2 511q6 15 20.5 22.5t28.5 1.5q39 -12 81 -15.5t111.5 -0.5t96.5 3q16 0 27.5 -11t11.5 -27.5t-11.5 -28t-27.5 -11.5q-12 0 -88 -3t-128 0t-97 20q-16 6 -23.5 20.5t-1.5 29.5z" />
<glyph unicode="&#x2000;" horiz-adv-x="840" />
<glyph unicode="&#x2001;" horiz-adv-x="1681" />
<glyph unicode="&#x2002;" horiz-adv-x="840" />
<glyph unicode="&#x2003;" horiz-adv-x="1681" />
<glyph unicode="&#x2004;" horiz-adv-x="560" />
<glyph unicode="&#x2005;" horiz-adv-x="420" />
<glyph unicode="&#x2006;" horiz-adv-x="280" />
<glyph unicode="&#x2007;" horiz-adv-x="280" />
<glyph unicode="&#x2008;" horiz-adv-x="210" />
<glyph unicode="&#x2009;" horiz-adv-x="336" />
<glyph unicode="&#x200a;" horiz-adv-x="93" />
<glyph unicode="&#x2010;" d="M-2 511q6 15 20.5 22.5t28.5 1.5q39 -12 81 -15.5t111.5 -0.5t96.5 3q16 0 27.5 -11t11.5 -27.5t-11.5 -28t-27.5 -11.5q-12 0 -88 -3t-128 0t-97 20q-16 6 -23.5 20.5t-1.5 29.5z" />
<glyph unicode="&#x2011;" d="M-2 511q6 15 20.5 22.5t28.5 1.5q39 -12 81 -15.5t111.5 -0.5t96.5 3q16 0 27.5 -11t11.5 -27.5t-11.5 -28t-27.5 -11.5q-12 0 -88 -3t-128 0t-97 20q-16 6 -23.5 20.5t-1.5 29.5z" />
<glyph unicode="&#x2012;" d="M-2 511q6 15 20.5 22.5t28.5 1.5q39 -12 81 -15.5t111.5 -0.5t96.5 3q16 0 27.5 -11t11.5 -27.5t-11.5 -28t-27.5 -11.5q-12 0 -88 -3t-128 0t-97 20q-16 6 -23.5 20.5t-1.5 29.5z" />
<glyph unicode="&#x2013;" horiz-adv-x="1224" d="M3 511q16 15 55.5 22.5t76.5 1.5q106 -12 219 -15.5t300.5 -0.5t260.5 3q43 0 74 -11t31 -27.5t-31 -28t-74 -11.5q-33 0 -238 -3t-345 0t-261 20q-44 6 -64 20.5t-4 29.5z" />
<glyph unicode="&#x2014;" horiz-adv-x="2248" d="M10.5 511q32.5 15 110.5 22.5t154 1.5q210 -12 436.5 -15.5t601.5 -0.5t521 3q86 0 148 -11t62 -27.5t-62 -28t-148 -11.5q-65 0 -475 -3t-690.5 0t-523.5 20q-86 6 -126.5 20.5t-8 29.5z" />
<glyph unicode="&#x2018;" horiz-adv-x="653" d="M162 1013.5q-6 14.5 0 28.5q23 51 102.5 213t108.5 256q4 16 18.5 23.5t29.5 3.5t22.5 -18.5t2.5 -28.5q-27 -98 -112.5 -271t-97.5 -206q-8 -16 -22.5 -22.5t-30 0.5t-21.5 21.5z" />
<glyph unicode="&#x2019;" horiz-adv-x="679" d="M130 1007.5q-5 14.5 3 28.5q86 174 270 445q10 12 25.5 15t29 -6t16.5 -24.5t-5 -29.5q-182 -264 -266 -432q-8 -16 -22.5 -21.5t-30 2.5t-20.5 22.5z" />
<glyph unicode="&#x201c;" horiz-adv-x="1017" d="M180 1058.5q-6 14.5 2 28.5q10 29 53.5 138.5t76 178.5t75.5 134q10 12 25.5 15t29 -6t16.5 -24.5t-5 -29.5q-41 -59 -72 -123.5t-72 -170t-57 -140.5q-6 -16 -20.5 -22.5t-30 0.5t-21.5 21.5zM539 1037.5q-4 15.5 2 29.5q117 227 196 457q6 16 20.5 23t30 1t22.5 -20.5 t1 -28.5q-82 -236 -201 -469q-8 -14 -23.5 -18t-29.5 3t-18 22.5z" />
<glyph unicode="&#x201d;" horiz-adv-x="1011" d="M203 1038q104 293 157 480q4 16 18.5 23t30 3t22.5 -18.5t3 -28.5q-55 -199 -158 -483q-6 -16 -20 -23.5t-29.5 -1.5t-22.5 20.5t-1 28.5zM598 1116l41 117l49 137l43 115q6 14 21.5 21t30 1t21.5 -21.5t1 -29.5q-23 -53 -43 -115l-49 -135l-41 -114q-6 -16 -20.5 -23.5 t-30 -1.5t-22.5 20.5t-1 28.5z" />
<glyph unicode="&#x202f;" horiz-adv-x="336" />
<glyph unicode="&#x205f;" horiz-adv-x="420" />
<glyph unicode="&#xe000;" horiz-adv-x="1013" d="M0 0v1014h1014v-1014h-1014z" />
</font>
</defs>
</svg>
